<svg xmlns="http://www.w3.org/2000/svg" width="1240" height="1240"><path d="M920.5 69.053c-17.607 1.427-46.165 2.891-56.94 2.919-16.737.043-33.855 3.691-47.56 10.136-6.839 3.216-10.12 5.599-16.79 12.194-4.559 4.509-9.503 10.223-10.987 12.698-1.484 2.475-3.233 5.4-3.887 6.5-4.887 8.215-10.632 24.895-14.809 43-3.72 16.125-5.145 22.908-11.552 55-.92 4.608-4.608 20.343-5.977 25.5-.766 2.888-2.654 10.773-6.582 27.5-.258 1.1-1.859 7.175-3.557 13.5-1.699 6.325-3.487 13.188-3.974 15.25-2.504 10.606-4.374 17.452-12.908 47.25-2.836 9.9-5.534 19.35-5.997 21a728.253 728.253 0 01-2.48 8.5c-.901 3.025-1.998 6.909-2.437 8.632-.44 1.723-1.053 3.543-1.364 4.046-.31.502-1.474 4.268-2.587 8.368A803.242 803.242 0 01706.476 404c-.888 3.025-1.998 6.85-2.466 8.5-2.406 8.473-15.149 51.342-15.904 53.5-.481 1.375-1.423 4.525-2.093 7-.671 2.475-1.79 6.3-2.487 8.5a292.64 292.64 0 00-2.512 8.5c-.685 2.475-1.608 5.625-2.05 7-.442 1.375-1.567 5.2-2.5 8.5s-2.262 7.8-2.954 10c-.691 2.2-1.713 5.575-2.271 7.5-7.463 25.761-17.743 56.903-21.413 64.867-4.978 10.802-15.793 20.579-28.011 25.32-7.092 2.753-24.865 3.01-32.315.468-13.658-4.66-23.863-13.38-29.419-25.139-2.999-6.348-3.688-8.737-6.057-21.016-.531-2.75-1.675-8.15-2.542-12-1.605-7.13-3.149-15.209-4.107-21.5-.293-1.925-1.129-6.875-1.857-11a919.268 919.268 0 01-2.496-15 1314.474 1314.474 0 00-2.632-16c-.803-4.675-1.878-11.2-2.389-14.5-1.912-12.336-4.169-26.145-4.986-30.5-.465-2.475-1.373-7.875-2.019-12-1.301-8.301-2.951-17.211-6.112-33a2026.078 2026.078 0 01-2.954-15c-.469-2.475-2.036-9-3.483-14.5-1.446-5.5-2.985-11.575-3.42-13.5-.796-3.531-11.511-35.805-21.081-63.5-2.851-8.25-5.539-16.35-5.973-18-.435-1.65-2.862-9.975-5.394-18.5-5.437-18.309-7.84-26.521-9.949-34a1799.23 1799.23 0 00-4.042-14c-1.37-4.675-3.16-10.975-3.978-14-.817-3.025-3.342-12.025-5.61-20-2.268-7.975-4.738-16.75-5.488-19.5-2.402-8.807-9.11-24.966-13.321-32.089-6.513-11.018-13.939-18.555-22.394-22.728-12.049-5.947-18.626-7.106-39.797-7.009-13.755.063-21.962.636-32 2.238a5408.106 5408.106 0 01-19.746 3.116c-3.436.529-10.411 1.829-15.5 2.889a1222.534 1222.534 0 01-17.821 3.547c-4.711.892-10.716 2.268-13.344 3.059-14.135 4.254-25.76 15.769-31.276 30.977-2.137 5.893-2.463 23.265-.572 30.5.646 2.475 2.319 9.338 3.717 15.25 6.229 26.343 7.546 31.896 10.019 42.25 1.445 6.05 3.738 15.725 5.095 21.5 1.357 5.775 2.908 11.882 3.448 13.571.539 1.689.98 3.899.98 4.912s.717 4.356 1.593 7.429c1.822 6.393 2.36 8.538 5.85 23.341a15612.28 15612.28 0 005.088 21.5A2802.027 2802.027 0 01287 336.5c.887 3.87 3.309 14.099 8.522 35.994 1.375 5.775 3.641 15.339 5.035 21.253 1.395 5.914 2.954 12.328 3.466 14.253.511 1.925 1.644 6.425 2.518 10a894.927 894.927 0 002.498 10c.502 1.925 3.242 13.175 6.091 25s7.164 29.15 9.589 38.5c2.426 9.35 4.788 18.575 5.249 20.5.461 1.925 1.606 6.2 2.543 9.5 2.346 8.26 3.473 12.399 4.492 16.5 1.134 4.562 6.982 26.419 10.972 41 1.73 6.325 3.977 14.65 4.993 18.5 1.016 3.85 2.296 8.35 2.844 10 .548 1.65 2.586 8.175 4.527 14.5 9.614 31.317 11.976 38.931 13.648 44 .997 3.025 4.168 12.925 7.045 22 7.846 24.751 13.259 40.8 25.969 77a3570.15 3570.15 0 019.513 27.5c2.431 7.15 6.252 18.175 8.491 24.5 2.239 6.325 7.187 20.781 10.997 32.124 3.809 11.344 7.372 21.694 7.917 23 .546 1.307 4.434 13.176 8.64 26.376 4.207 13.2 9.175 28.725 11.04 34.5 1.864 5.775 3.806 11.85 4.315 13.5L473 963c2.289 7.425 4.574 14.85 5.078 16.5.504 1.65 1.982 6.375 3.285 10.5 1.302 4.125 2.933 9.525 3.625 12a2092.342 2092.342 0 005.383 19 600.647 600.647 0 013.042 11c4.518 17.12 6.089 22.761 9.747 35 2.219 7.425 4.391 14.85 4.826 16.5.908 3.446 8.237 21.038 11.243 26.99 6.059 11.994 13.956 21.065 25.771 29.602 13.317 9.623 37.16 14.928 67.026 14.915 20.005-.009 30.504-1.35 48.474-6.19 22.885-6.163 43.237-21.647 56.419-42.926 8.065-13.018 17.886-37.329 23.79-58.891l2.465-9a249.372 249.372 0 001.786-7c.455-1.925 2.035-8 3.511-13.5s3.743-14.05 5.039-19c1.296-4.95 3.082-11.7 3.97-15 .888-3.3 2.978-11.175 4.644-17.5a3393.138 3393.138 0 015.061-19c1.119-4.125 2.851-10.65 3.851-14.5a4985.3 4985.3 0 014.391-16.75c1.415-5.362 3.668-13.913 5.006-19s3.159-11.95 4.047-15.25c.888-3.3 2.978-11.175 4.644-17.5 1.665-6.325 3.86-14.65 4.876-18.5 1.016-3.85 3.266-12.4 5-19s4.058-15.375 5.165-19.5c1.106-4.125 2.846-10.65 3.866-14.5 1.019-3.85 2.576-9.7 3.459-13 4.001-14.959 12.032-45.511 15.507-59 .992-3.85 2.554-9.7 3.47-13 .917-3.3 2.726-10.05 4.02-15 1.295-4.95 3.09-11.7 3.99-15 1.673-6.136 6.432-24.293 11.562-44.11a1868.884 1868.884 0 015.028-19c2.136-7.834 3.927-14.608 8.428-31.89 1.289-4.95 3.108-11.7 4.042-15 .933-3.3 2.04-7.575 2.458-9.5.419-1.925 1.918-7.775 3.331-13 6.602-24.405 12.883-48.177 13.74-52 .431-1.925 1.517-6.2 2.414-9.5.896-3.3 2.011-7.575 2.478-9.5.467-1.925 1.62-6.2 2.563-9.5.942-3.3 2.067-7.575 2.499-9.5.432-1.925 2.015-8 3.517-13.5 1.503-5.5 3.098-11.575 3.546-13.5.448-1.925 1.532-5.975 2.409-9 .877-3.025 1.997-7.3 2.49-9.5.492-2.2 2.462-9.85 4.377-17 1.915-7.15 5.303-19.975 7.53-28.5 2.227-8.525 5.22-19.775 6.652-25 1.432-5.225 2.961-11.075 3.397-13 .436-1.925 2.022-8 3.525-13.5 1.502-5.5 3.085-11.575 3.517-13.5.432-1.925 1.557-6.2 2.499-9.5.943-3.3 2.068-7.575 2.5-9.5.433-1.925 1.558-6.2 2.5-9.5.943-3.3 2.087-7.575 2.543-9.5.455-1.925 1.561-6.2 2.458-9.5.896-3.3 2.011-7.575 2.478-9.5.467-1.925 1.62-6.2 2.563-9.5.942-3.3 2.077-7.575 2.521-9.5.445-1.925 1.541-6.2 2.438-9.5.896-3.3 2.014-7.575 2.483-9.5.47-1.925 1.992-7.775 3.384-13 6.242-23.442 7.888-29.726 8.648-33 .446-1.925 1.587-6.2 2.534-9.5 4.239-14.763 6.139-30.48 4.761-39.38-3.534-22.834-24.874-41.541-46.722-40.958-3.337.089-10.118.49-15.068.891" fill="undefined" fill-rule="evenodd"/></svg>