<?xml version="1.0" encoding="utf-8"?>
<!-- Generator: Adobe Illustrator 23.0.1, SVG Export Plug-In . SVG Version: 6.00 Build 0)  -->
<svg version="1.1" id="Layer_1" xmlns="http://www.w3.org/2000/svg" xmlns:xlink="http://www.w3.org/1999/xlink" x="0px" y="0px"
	 viewBox="0 0 351.2 100.6" style="enable-background:new 0 0 351.2 100.6;" xml:space="preserve">
<style type="text/css">
	.st0{clip-path:url(#SVGID_2_);}
	.st1{fill:#00b566;}
</style>
<g>
	<defs>
		<rect id="SVGID_1_" x="-54.7" y="-226.3" width="452" height="344"/>
	</defs>
	<clipPath id="SVGID_2_">
		<use xlink:href="#SVGID_1_"  style="overflow:visible;"/>
	</clipPath>
	<g class="st0">
		<g>
			<path class="st1" d="M120.6,61.4c0,9.8,0,19.5,0,30.2c-4.7,0.4-9.9,0.8-16.6,1.4c-1.2-28.7-2.4-56.9-3.6-84.8
				c14.9-4.2,15.9-3.3,21.1,9.7c3.4,8.4,8.4,16.1,12.7,24.2c1.2-0.3,2.5-0.7,3.7-1c0-8.1-0.1-16.2,0-24.3
				c0.1-10.3,2.3-12.4,12.2-10.6c1.8,0.3,4.4,3.1,4.5,5c0.6,7.1,0.4,14.3,0.5,21.5c0.3,16.6,0.9,33.3,1,49.9c0,2.8-2.1,8.1-2.8,8.1
				c-4.8-0.5-11.3-0.5-13.9-3.6c-5.5-6.4-8.8-14.7-13.2-22.1c-0.9-1.5-2.3-2.8-3.4-4.1C122.1,61,121.4,61.2,120.6,61.4z"/>
			<path class="st1" d="M166.1,57.6c-1.2-14.9-2.4-30.4-3.8-45.8c-0.5-5,0.2-8.3,6.4-7.7c6.9,0.6,14,0.1,20.7,1.5
				c20.8,4.1,28.6,19.2,30.7,38.5c3.7,33.3-16.8,49.4-46.5,50.3c-4.7,0.1-8-0.6-7.6-6.8C166.5,77.8,166.1,68.1,166.1,57.6z
				 M182.4,21.4c-0.6,2.3-1.6,4.5-1.6,6.8c0.3,13.3,0.8,26.5,1.5,39.8c0.1,2.2,1.3,5.5,2.9,6.3c1.6,0.8,4.8-0.4,6.7-1.6
				c10.2-6.2,13.5-15.4,11.5-27.1C201.4,33.5,197.2,23.7,182.4,21.4z"/>
			<path class="st1" d="M1.1,11.2C0.5,8.8,2,6.3,4.4,5.8C22,2.1,17.3,5.8,24.3,25.2c2.6,7.2,2.9,15.2,4.7,22.7c0,0,0,0.1,0,0.1
				c1,4.1,6.9,4.4,8.4,0.4c0.4-1.1,0.8-2.2,1.1-3.3c3.3-11.4,7.1-22.7,9.3-34.3c1.2-6.5,3.9-8.5,9.8-8.4c1.5,0,3-0.1,4.7-0.3
				c2.9-0.4,5.4,2.2,4.9,5.1C67.2,7.6,67.1,8,67,8.5C60,35.1,53.1,61.7,46,88.2c-1.5,5.6-2.9,11.1-11,11.5
				c-6.8,0.3-9.3-1.5-11.1-8.4c-3.5-14-9.2-27.4-13.2-41.3C7.1,37.3,4.3,24.4,1.1,11.2z"/>
			<path class="st1" d="M282.9,94.4c-2.8,0.4-5.7,0.8-8.7,1.4c-6,1.2-9.8-0.8-10.6-7.1c-1.6-12.6-11.4-7.2-18.2-8.3
				c-6.7-1.1-6.7,4.1-7.4,8.5c-0.8,5.1-3.6,7.9-9.1,7.5c-3.3-0.3-6.6,0-11.4,0c3.4-12.7,6.4-25.5,10.2-38c4.4-14.6,9.6-29,14.3-43.5
				c1.7-5.3,4-9.8,10.6-10.1c5.7-0.3,8.6,0.9,10.1,7.7c4.3,19.5,10.1,38.6,15.1,58C279.7,78.2,281.1,86.1,282.9,94.4z M250.8,45.2
				c-1.2,6.9-2.1,11.8-2.9,16.8c2.9-0.1,7.7,0.8,8.2-0.3C258.7,56.3,256.9,51.4,250.8,45.2z"/>
			<path class="st1" d="M296.5,68.3c-1.8,4-3.7,7.9-5.9,12.7c-13.8-27.2-2.2-60.1,21.8-69c8.1-3,14.4-0.3,19.9,4.4
				c26.5,22.7,19.2,57.9,0,74.9c-7.9,7-17,7.2-26.6,4c-5.2-1.7-7.7-4.9-6.5-10.7c0.9-4.3,1-8.7,1.5-13
				C299.4,70.6,298,69.4,296.5,68.3z M301.9,57.5c0.1,2.1-0.6,4.9,0.5,6.5c3.2,4.8,6.2,11,10.9,13.3c6.1,2.9,11.1-2.7,13.8-8
				c5.7-11,7.2-22.2-0.6-33.1c-4.4-6.1-9.1-6.9-14.7-1.8C304.8,40.4,302,48.3,301.9,57.5z"/>
			<path class="st1" d="M76,92.2c0-28.9,0-57.2,0-85.7c2.1-0.4,3.2-0.7,4.2-0.8c12.4-0.9,12.6-0.6,12.7,11.5
				c0.2,22.4,0.3,44.9,0.9,67.3c0.2,6.5-1.7,9.4-8.4,8.4C83,92.5,80.5,92.5,76,92.2z"/>
		</g>
	</g>
</g>
</svg>
